<?xml version="1.0" encoding="UTF-8" standalone="no"?>
<!-- Created with Inkscape (http://www.inkscape.org/) -->

<svg
   xmlns:dc="http://purl.org/dc/elements/1.1/"
   xmlns:cc="http://creativecommons.org/ns#"
   xmlns:rdf="http://www.w3.org/1999/02/22-rdf-syntax-ns#"
   xmlns:svg="http://www.w3.org/2000/svg"
   xmlns="http://www.w3.org/2000/svg"
   xmlns:xlink="http://www.w3.org/1999/xlink"
   xmlns:sodipodi="http://sodipodi.sourceforge.net/DTD/sodipodi-0.dtd"
   xmlns:inkscape="http://www.inkscape.org/namespaces/inkscape"
   width="744.09448819"
   height="1052.3622047"
   id="svg2"
   version="1.1"
   inkscape:version="0.48.1 r9760"
   sodipodi:docname="TV2.svg"
   inkscape:export-filename="/srv/http/sam.bailey.geek.nz/xbmc/img/TV.png"
   inkscape:export-xdpi="90.010002"
   inkscape:export-ydpi="90.010002">
  <defs
     id="defs4">
    <linearGradient
       id="linearGradient4093">
      <stop
         style="stop-color:#a4a4a4;stop-opacity:1;"
         offset="0"
         id="stop4095" />
      <stop
         style="stop-color:#f4f4f4;stop-opacity:1"
         offset="1"
         id="stop4097" />
    </linearGradient>
    <linearGradient
       inkscape:collect="always"
       xlink:href="#linearGradient4093"
       id="linearGradient4107"
       x1="233.03572"
       y1="275.8056"
       x2="233.03572"
       y2="229.1951"
       gradientUnits="userSpaceOnUse" />
    <linearGradient
       inkscape:collect="always"
       xlink:href="#linearGradient4093"
       id="linearGradient4047"
       x1="33.40625"
       y1="149.0625"
       x2="378.21872"
       y2="149.0625"
       gradientUnits="userSpaceOnUse" />
    <linearGradient
       inkscape:collect="always"
       xlink:href="#linearGradient4093"
       id="linearGradient4049"
       gradientUnits="userSpaceOnUse"
       x1="209.17279"
       y1="172.80109"
       x2="209.17279"
       y2="125.28727" />
    <linearGradient
       inkscape:collect="always"
       xlink:href="#linearGradient4093"
       id="linearGradient4051"
       gradientUnits="userSpaceOnUse"
       x1="343.87354"
       y1="172.2973"
       x2="343.87354"
       y2="124.81884" />
    <linearGradient
       inkscape:collect="always"
       xlink:href="#linearGradient4093"
       id="linearGradient4053"
       gradientUnits="userSpaceOnUse"
       x1="57.64991"
       y1="171.79094"
       x2="57.64991"
       y2="125.31604" />
    <linearGradient
       inkscape:collect="always"
       xlink:href="#linearGradient4093"
       id="linearGradient4055"
       gradientUnits="userSpaceOnUse"
       x1="127.85551"
       y1="172.29601"
       x2="127.85551"
       y2="126.83779" />
    <linearGradient
       inkscape:collect="always"
       xlink:href="#linearGradient4093"
       id="linearGradient4057"
       gradientUnits="userSpaceOnUse"
       x1="200.43187"
       y1="171.80569"
       x2="200.43187"
       y2="125.82899" />
    <linearGradient
       inkscape:collect="always"
       xlink:href="#linearGradient4093"
       id="linearGradient4060"
       gradientUnits="userSpaceOnUse"
       x1="57.64991"
       y1="171.79094"
       x2="57.64991"
       y2="125.31604" />
    <linearGradient
       inkscape:collect="always"
       xlink:href="#linearGradient4093"
       id="linearGradient4063"
       gradientUnits="userSpaceOnUse"
       x1="343.87354"
       y1="172.2973"
       x2="343.87354"
       y2="124.81884" />
    <linearGradient
       inkscape:collect="always"
       xlink:href="#linearGradient4093"
       id="linearGradient4066"
       gradientUnits="userSpaceOnUse"
       x1="209.17279"
       y1="172.80109"
       x2="209.17279"
       y2="125.28727" />
    <linearGradient
       inkscape:collect="always"
       xlink:href="#linearGradient4093"
       id="linearGradient4069"
       gradientUnits="userSpaceOnUse"
       x1="200.43187"
       y1="171.80569"
       x2="200.43187"
       y2="125.82899" />
    <linearGradient
       inkscape:collect="always"
       xlink:href="#linearGradient4093"
       id="linearGradient4072"
       gradientUnits="userSpaceOnUse"
       x1="127.85551"
       y1="172.29601"
       x2="127.85551"
       y2="126.83779" />
  </defs>
  <sodipodi:namedview
     id="base"
     pagecolor="#ffffff"
     bordercolor="#666666"
     borderopacity="1.0"
     inkscape:pageopacity="0.0"
     inkscape:pageshadow="2"
     inkscape:zoom="0.98994949"
     inkscape:cx="41.747053"
     inkscape:cy="919.84278"
     inkscape:document-units="px"
     inkscape:current-layer="layer1"
     showgrid="false"
     showguides="true"
     inkscape:guide-bbox="true"
     inkscape:window-width="1637"
     inkscape:window-height="1025"
     inkscape:window-x="43"
     inkscape:window-y="0"
     inkscape:window-maximized="1" />
  <metadata
     id="metadata7">
    <rdf:RDF>
      <cc:Work
         rdf:about="">
        <dc:format>image/svg+xml</dc:format>
        <dc:type
           rdf:resource="http://purl.org/dc/dcmitype/StillImage" />
        <dc:title></dc:title>
      </cc:Work>
    </rdf:RDF>
  </metadata>
  <g
     inkscape:label="Layer 1"
     inkscape:groupmode="layer"
     id="layer1">
    <path
       style="fill:url(#linearGradient4107);fill-opacity:1;stroke:none"
       d="M 220.875 231.9375 A 2.0002 2.0002 0 0 0 219.8125 235.53125 L 225.34375 240.625 A 2.0002 2.0002 0 0 0 228.0625 240.59375 L 233.59375 235.4375 A 2.0002 2.0002 0 0 0 232.25 231.9375 A 2.0002 2.0002 0 0 0 230.875 232.5 L 226.6875 236.4375 L 222.5 232.59375 A 2.0002 2.0002 0 0 0 220.875 231.9375 z M 207.5 241.46875 C 206.11087 241.46875 205 242.55019 205 243.875 L 205 273.375 C 205 274.69982 206.11087 275.75 207.5 275.75 L 245.875 275.75 C 247.26412 275.75 248.40625 274.69982 248.40625 273.375 L 248.40625 243.875 C 248.40625 242.55019 247.26412 241.46875 245.875 241.46875 L 207.5 241.46875 z M 210.8125 245.65625 L 236.6875 245.65625 C 238.07663 245.65625 239.1875 246.73768 239.1875 248.0625 L 239.1875 270.25 C 239.1875 271.57481 238.07663 272.625 236.6875 272.625 L 210.8125 272.625 C 209.42338 272.625 208.3125 271.57481 208.3125 270.25 L 208.3125 248.0625 C 208.3125 246.73768 209.42338 245.65625 210.8125 245.65625 z M 244.03125 256.375 C 245.60919 256.375 246.87498 257.67206 246.875 259.25 C 246.875 260.82795 245.60921 262.09375 244.03125 262.09375 C 242.45329 262.09375 241.15625 260.82795 241.15625 259.25 C 241.15625 257.67204 242.45329 256.375 244.03125 256.375 z M 244.03125 263.6875 C 245.60919 263.6875 246.87498 264.98456 246.875 266.5625 C 246.875 268.14045 245.60921 269.40625 244.03125 269.40625 C 242.45329 269.40625 241.15625 268.14045 241.15625 266.5625 C 241.15625 264.98454 242.45329 263.6875 244.03125 263.6875 z "
       id="rect3066" />
    <path
       inkscape:export-ydpi="90.010002"
       inkscape:export-xdpi="90.010002"
       inkscape:export-filename="/srv/http/sam.bailey.geek.nz/xbmc/img/Play.png"
       style="font-size:medium;font-style:normal;font-variant:normal;font-weight:normal;font-stretch:normal;text-indent:0;text-align:start;text-decoration:none;line-height:normal;letter-spacing:normal;word-spacing:normal;text-transform:none;direction:ltr;block-progression:tb;writing-mode:lr-tb;text-anchor:start;baseline-shift:baseline;color:#000000;fill:url(#linearGradient4072);fill-opacity:1;fill-rule:nonzero;stroke:none;stroke-width:2;marker:none;visibility:visible;display:inline;overflow:visible;enable-background:accumulate;font-family:Sans;-inkscape-font-specification:Sans"
       d="m 112.1797,126.49357 c -0.47785,0.03 -0.89256,0.47233 -0.89166,0.95111 l 0,43.24556 c -0.006,0.66679 0.84913,1.16555 1.42666,0.83221 l 37.44976,-21.63764 c 0.56335,-0.33534 0.56335,-1.29937 0,-1.63471 L 112.7147,126.64218 c -0.15842,-0.1009 -0.34724,-0.15334 -0.535,-0.14861 z"
       id="path3128"
       inkscape:connector-curvature="0"
       sodipodi:nodetypes="cccccccc" />
    <path
       style="color:#000000;fill:url(#linearGradient4069);fill-opacity:1;fill-rule:nonzero;stroke:none;stroke-width:4;marker:none;visibility:visible;display:inline;overflow:visible;enable-background:accumulate"
       d="m 189.40623,126.375 c -0.80902,0 -1.4375,0.44156 -1.4375,1 l 0,43.34375 c 0,0.55844 0.62848,1.03125 1.4375,1.03125 l 12.09375,0 c 0.80902,0 1.4375,-0.47281 1.4375,-1.03125 l 0,-43.34375 c 0,-0.55844 -0.62848,-1 -1.4375,-1 l -12.09375,0 z m 20.75,0 c -0.80902,0 -1.46875,0.44156 -1.46875,1 l 0,43.34375 c 0,0.55844 0.65973,1.03125 1.46875,1.03125 l 12.0625,0 c 0.80902,0 1.4375,-0.47281 1.4375,-1.03125 l 0,-43.34375 c 0,-0.55844 -0.62848,-1 -1.4375,-1 l -12.0625,0 z"
       id="rect3130"
       inkscape:connector-curvature="0"
       inkscape:export-filename="/srv/http/sam.bailey.geek.nz/xbmc/img/Pause.png"
       inkscape:export-xdpi="90.010002"
       inkscape:export-ydpi="90.010002" />
    <rect
       style="color:#000000;fill:url(#linearGradient4066);fill-opacity:1;fill-rule:nonzero;stroke:none;stroke-width:4;marker:none;visibility:visible;display:inline;overflow:visible;enable-background:accumulate"
       id="rect3130-9-6"
       width="45.290344"
       height="45.357143"
       x="258.0423"
       y="126.38242"
       rx="1.460325"
       ry="1.008013"
       inkscape:export-filename="/srv/http/sam.bailey.geek.nz/xbmc/img/Stop.png"
       inkscape:export-xdpi="90.010002"
       inkscape:export-ydpi="90.010002" />
    <path
       style="font-size:medium;font-style:normal;font-variant:normal;font-weight:normal;font-stretch:normal;text-indent:0;text-align:start;text-decoration:none;line-height:normal;letter-spacing:normal;word-spacing:normal;text-transform:none;direction:ltr;block-progression:tb;writing-mode:lr-tb;text-anchor:start;baseline-shift:baseline;color:#000000;fill:url(#linearGradient4063);fill-opacity:1;fill-rule:nonzero;stroke:none;stroke-width:2;marker:none;visibility:visible;display:inline;overflow:visible;enable-background:accumulate;font-family:Sans;-inkscape-font-specification:Sans"
       d="m 364.68747,126.375 c -0.80902,0 -1.46875,0.44156 -1.46875,1 l 0,15.9375 -28.90625,-16.65625 c -0.15842,-0.1009 -0.34349,-0.16098 -0.53125,-0.15625 -0.47785,0.03 -0.8759,0.45872 -0.875,0.9375 l 0,43.25 c -0.006,0.66679 0.82872,1.17709 1.40625,0.84375 l 28.90625,-16.71875 0,15.90625 c 0,0.55844 0.65973,1.03125 1.46875,1.03125 l 12.0625,0 c 0.80902,0 1.46875,-0.47281 1.46875,-1.03125 l 0,-43.34375 c 0,-0.55844 -0.65973,-1 -1.46875,-1 l -12.0625,0 z"
       id="path3128-2"
       inkscape:connector-curvature="0"
       inkscape:export-filename="/srv/http/sam.bailey.geek.nz/xbmc/img/GoNext.png"
       inkscape:export-xdpi="90.010002"
       inkscape:export-ydpi="90.010002" />
    <path
       inkscape:connector-curvature="0"
       inkscape:export-ydpi="90.010002"
       inkscape:export-xdpi="90.010002"
       inkscape:export-filename="/srv/http/sam.bailey.geek.nz/xbmc/img/GoPrevious.png"
       style="font-size:medium;font-style:normal;font-variant:normal;font-weight:normal;font-stretch:normal;text-indent:0;text-align:start;text-decoration:none;line-height:normal;letter-spacing:normal;word-spacing:normal;text-transform:none;direction:ltr;block-progression:tb;writing-mode:lr-tb;text-anchor:start;baseline-shift:baseline;color:#000000;fill:url(#linearGradient4060);fill-opacity:1;fill-rule:nonzero;stroke:none;stroke-width:2;marker:none;visibility:visible;display:inline;overflow:visible;enable-background:accumulate;font-family:Sans;-inkscape-font-specification:Sans"
       d="m 34.875,126.375 c -0.80902,0 -1.46875,0.44156 -1.46875,1 l 0,43.34375 c 0,0.55844 0.65973,1.03125 1.46875,1.03125 l 12.0625,0 c 0.80902,0 1.4375,-0.47281 1.4375,-1.03125 l 0,-15.90625 28.9375,16.71875 c 0.57753,0.33334 1.41225,-0.17696 1.40625,-0.84375 l 0,-43.25 c 9e-4,-0.47878 -0.39715,-0.9075 -0.875,-0.9375 -0.18776,-0.005 -0.37283,0.0554 -0.53125,0.15625 l -28.9375,16.6875 0,-15.96875 c 0,-0.55844 -0.62848,-1 -1.4375,-1 l -12.0625,0 z"
       id="path3128-2-7" />
  </g>
</svg>
