<?xml version="1.0" encoding="UTF-8" standalone="no"?>
<!-- Created with Inkscape (http://www.inkscape.org/) -->

<svg
   xmlns:dc="http://purl.org/dc/elements/1.1/"
   xmlns:cc="http://creativecommons.org/ns#"
   xmlns:rdf="http://www.w3.org/1999/02/22-rdf-syntax-ns#"
   xmlns:svg="http://www.w3.org/2000/svg"
   xmlns="http://www.w3.org/2000/svg"
   xmlns:xlink="http://www.w3.org/1999/xlink"
   xmlns:sodipodi="http://sodipodi.sourceforge.net/DTD/sodipodi-0.dtd"
   xmlns:inkscape="http://www.inkscape.org/namespaces/inkscape"
   width="315.6795"
   height="257.44678"
   id="svg2"
   version="1.1"
   inkscape:version="0.48.1 r9760"
   sodipodi:docname="remote.svg">
  <defs
     id="defs4">
    <linearGradient
       id="linearGradient4093-7">
      <stop
         id="stop4095-3"
         offset="0"
         style="stop-color:#a4a4a4;stop-opacity:1;" />
      <stop
         id="stop4097-61"
         offset="1"
         style="stop-color:#f4f4f4;stop-opacity:1" />
    </linearGradient>
    <linearGradient
       inkscape:collect="always"
       xlink:href="#linearGradient4093-7"
       id="linearGradient4219"
       gradientUnits="userSpaceOnUse"
       x1="243.40794"
       y1="148.79756"
       x2="243.40794"
       y2="106.3267" />
    <linearGradient
       inkscape:collect="always"
       xlink:href="#linearGradient4093-7"
       id="linearGradient4223"
       gradientUnits="userSpaceOnUse"
       x1="461.60089"
       y1="142.73665"
       x2="460.66837"
       y2="109.40161" />
    <linearGradient
       inkscape:collect="always"
       xlink:href="#linearGradient4093-7"
       id="linearGradient4229"
       gradientUnits="userSpaceOnUse"
       x1="252.57695"
       y1="182.14363"
       x2="252.57695"
       y2="142.73665"
       gradientTransform="translate(-65.532812,69.088076)" />
    <linearGradient
       inkscape:collect="always"
       xlink:href="#linearGradient4093-7"
       id="linearGradient4231"
       gradientUnits="userSpaceOnUse"
       x1="248.45871"
       y1="353.85852"
       x2="248.45871"
       y2="309.11691"
       gradientTransform="translate(-0.05907998,0)" />
    <linearGradient
       inkscape:collect="always"
       xlink:href="#linearGradient4093-7"
       id="linearGradient4233"
       gradientUnits="userSpaceOnUse"
       x1="322.19986"
       y1="354.86868"
       x2="322.19986"
       y2="307.35178" />
    <linearGradient
       inkscape:collect="always"
       xlink:href="#linearGradient4093-7"
       id="linearGradient4237"
       gradientUnits="userSpaceOnUse"
       x1="381.79886"
       y1="354.86868"
       x2="381.79886"
       y2="307.34518" />
    <linearGradient
       inkscape:collect="always"
       xlink:href="#linearGradient4093-7"
       id="linearGradient4239"
       gradientUnits="userSpaceOnUse"
       x1="456.55014"
       y1="354.86868"
       x2="457.63791"
       y2="307.39151" />
    <linearGradient
       inkscape:collect="always"
       xlink:href="#linearGradient4093-7"
       id="linearGradient3042"
       gradientUnits="userSpaceOnUse"
       x1="174.71758"
       y1="483.15805"
       x2="227.32314"
       y2="483.15805" />
    <linearGradient
       inkscape:collect="always"
       xlink:href="#linearGradient4093-7"
       id="linearGradient3044"
       gradientUnits="userSpaceOnUse"
       x1="174.71758"
       y1="483.15805"
       x2="227.32314"
       y2="483.15805" />
    <linearGradient
       inkscape:collect="always"
       xlink:href="#linearGradient4093-7"
       id="linearGradient3089"
       gradientUnits="userSpaceOnUse"
       x1="174.71758"
       y1="483.15805"
       x2="227.32314"
       y2="483.15805" />
    <linearGradient
       inkscape:collect="always"
       xlink:href="#linearGradient4093-7"
       id="linearGradient3091"
       gradientUnits="userSpaceOnUse"
       x1="174.71758"
       y1="483.15805"
       x2="227.32314"
       y2="483.15805" />
    <linearGradient
       inkscape:collect="always"
       xlink:href="#linearGradient4093-7"
       id="linearGradient3093"
       gradientUnits="userSpaceOnUse"
       x1="174.71758"
       y1="483.15805"
       x2="227.32314"
       y2="483.15805" />
    <linearGradient
       inkscape:collect="always"
       xlink:href="#linearGradient4093-7"
       id="linearGradient3095"
       gradientUnits="userSpaceOnUse"
       x1="174.71758"
       y1="483.15805"
       x2="227.32314"
       y2="483.15805" />
    <linearGradient
       inkscape:collect="always"
       xlink:href="#linearGradient4093-7"
       id="linearGradient3104"
       gradientUnits="userSpaceOnUse"
       x1="174.71758"
       y1="483.15805"
       x2="227.32314"
       y2="483.15805" />
    <linearGradient
       inkscape:collect="always"
       xlink:href="#linearGradient4093-7"
       id="linearGradient3106"
       gradientUnits="userSpaceOnUse"
       x1="174.71758"
       y1="483.15805"
       x2="227.32314"
       y2="483.15805" />
    <linearGradient
       inkscape:collect="always"
       xlink:href="#linearGradient4093-7"
       id="linearGradient3108"
       gradientUnits="userSpaceOnUse"
       x1="267.50293"
       y1="310.03418"
       x2="268.05817"
       y2="255.72078" />
    <linearGradient
       inkscape:collect="always"
       xlink:href="#linearGradient4093-7"
       id="linearGradient3110"
       gradientUnits="userSpaceOnUse"
       x1="198.47968"
       y1="508.05167"
       x2="198.47968"
       y2="461.38156" />
    <linearGradient
       inkscape:collect="always"
       xlink:href="#linearGradient4093-7"
       id="linearGradient3112"
       gradientUnits="userSpaceOnUse"
       x1="196.77187"
       y1="460.5238"
       x2="196.77187"
       y2="505.78864" />
  </defs>
  <sodipodi:namedview
     id="base"
     pagecolor="#000000"
     bordercolor="#666666"
     borderopacity="1.0"
     inkscape:pageopacity="1"
     inkscape:pageshadow="2"
     inkscape:zoom="0.98994949"
     inkscape:cx="123.42496"
     inkscape:cy="-37.633887"
     inkscape:document-units="px"
     inkscape:current-layer="g3062"
     showgrid="false"
     inkscape:window-width="1637"
     inkscape:window-height="1025"
     inkscape:window-x="43"
     inkscape:window-y="0"
     inkscape:window-maximized="1"
     fit-margin-top="3"
     fit-margin-left="3"
     fit-margin-right="3"
     fit-margin-bottom="3" />
  <metadata
     id="metadata7">
    <rdf:RDF>
      <cc:Work
         rdf:about="">
        <dc:format>image/svg+xml</dc:format>
        <dc:type
           rdf:resource="http://purl.org/dc/dcmitype/StillImage" />
        <dc:title />
      </cc:Work>
    </rdf:RDF>
  </metadata>
  <g
     inkscape:label="Layer 1"
     inkscape:groupmode="layer"
     id="layer1"
     transform="translate(12.036756,-4.0167348)">
    <path
       style="fill:#000000"
       d=""
       id="path3854"
       inkscape:connector-curvature="0" />
    <path
       style="fill:#000000"
       d=""
       id="path3852"
       inkscape:connector-curvature="0" />
    <g
       id="g3097"
       transform="translate(-2.3450442,0)">
      <path
         onclick="xbmc.Right()"
         inkscape:transform-center-x="-7.5929601"
         transform="matrix(0,-0.89273263,0.89273263,0,-218.23223,281.26606)"
         d="m 201.02036,505.93694 -26.30279,-45.55777 52.60557,0 z"
         inkscape:randomized="0"
         inkscape:rounded="0"
         inkscape:flatsided="true"
         sodipodi:arg2="2.6179939"
         sodipodi:arg1="1.5707963"
         sodipodi:r2="15.185923"
         sodipodi:r1="30.371845"
         sodipodi:cy="475.56509"
         sodipodi:cx="201.02036"
         sodipodi:sides="3"
         id="path2989-9"
         style="color:#000000;fill:url(#linearGradient3104);fill-opacity:1;fill-rule:nonzero;stroke:none;stroke-width:2;marker:none;visibility:visible;display:inline;overflow:visible;enable-background:accumulate"
         sodipodi:type="star" />
      <path
         onclick="xbmc.Left()"
         inkscape:transform-center-x="7.5929598"
         transform="matrix(0,0.89273263,-0.89273263,0,515.87545,-77.648795)"
         d="m 201.02036,505.93694 -26.30279,-45.55777 52.60557,0 z"
         inkscape:randomized="0"
         inkscape:rounded="0"
         inkscape:flatsided="true"
         sodipodi:arg2="2.6179939"
         sodipodi:arg1="1.5707963"
         sodipodi:r2="15.185923"
         sodipodi:r1="30.371845"
         sodipodi:cy="475.56509"
         sodipodi:cx="201.02036"
         sodipodi:sides="3"
         id="path2989-8"
         style="color:#000000;fill:url(#linearGradient3106);fill-opacity:1;fill-rule:nonzero;stroke:none;stroke-width:2;marker:none;visibility:visible;display:inline;overflow:visible;enable-background:accumulate"
         sodipodi:type="star" />
      <path
         onclick="xbmc.Select()"
         sodipodi:type="arc"
         style="color:#000000;fill:url(#linearGradient3108);fill-opacity:1;fill-rule:nonzero;stroke:none;stroke-width:2;marker:none;visibility:visible;display:inline;overflow:visible;enable-background:accumulate"
         id="path3068"
         sodipodi:cx="267.69043"
         sodipodi:cy="284.64624"
         sodipodi:rx="19.192898"
         sodipodi:ry="19.192898"
         d="m 286.88333,284.64624 a 19.192898,19.192898 0 1 1 0,-3.3e-4"
         transform="matrix(0.89273263,0,0,0.89273263,-90.154367,-152.30435)"
         sodipodi:start="0"
         sodipodi:end="6.2831679"
         sodipodi:open="true" />
      <path
         onclick="xbmc.Down()"
         inkscape:transform-center-x="-7.5929601"
         transform="matrix(0.89273263,0,0,0.89273263,-30.635817,-265.24521)"
         d="m 201.02036,505.93694 -26.30279,-45.55777 52.60557,0 z"
         inkscape:randomized="0"
         inkscape:rounded="0"
         inkscape:flatsided="true"
         sodipodi:arg2="2.6179939"
         sodipodi:arg1="1.5707963"
         sodipodi:r2="15.185923"
         sodipodi:r1="30.371845"
         sodipodi:cy="475.56509"
         sodipodi:cx="201.02036"
         sodipodi:sides="3"
         id="path2989-9-6"
         style="color:#000000;fill:url(#linearGradient3110);fill-opacity:1;fill-rule:nonzero;stroke:none;stroke-width:2;marker:none;visibility:visible;display:inline;overflow:visible;enable-background:accumulate"
         sodipodi:type="star" />
      <path
         onclick="xbmc.Up()"
         inkscape:transform-center-x="7.5929598"
         transform="matrix(-0.89273263,0,0,-0.89273263,328.27904,468.86247)"
         d="m 201.02036,505.93694 -26.30279,-45.55777 52.60557,0 z"
         inkscape:randomized="0"
         inkscape:rounded="0"
         inkscape:flatsided="true"
         sodipodi:arg2="2.6179939"
         sodipodi:arg1="1.5707963"
         sodipodi:r2="15.185923"
         sodipodi:r1="30.371845"
         sodipodi:cy="475.56509"
         sodipodi:cx="201.02036"
         sodipodi:sides="3"
         id="path2989-8-3"
         style="color:#000000;fill:url(#linearGradient3112);fill-opacity:1;fill-rule:nonzero;stroke:none;stroke-width:2;marker:none;visibility:visible;display:inline;overflow:visible;enable-background:accumulate"
         sodipodi:type="star" />
    </g>
    <g
       id="g3909"
       onclick="xbmc.Home()"
       transform="translate(-227.53179,-95.802048)"
       style="color:#000000;fill:url(#linearGradient3044);fill-opacity:1;fill-rule:nonzero;stroke:none;stroke-width:1.78546524;marker:none;visibility:visible;display:inline;overflow:visible;enable-background:accumulate">
      <path
         inkscape:connector-curvature="0"
         id="path3858"
         d="m 247.04492,106.91939 -9.66007,8.19643 0,-4.73246 -4.14701,0 0,8.19643 -8.05006,6.83035 5.4155,0 0,24.78444 11.41645,0 0,-12.97768 10.05038,0 0,12.97768 11.41646,0 0,-24.78444 5.4155,0 -21.85715,-18.49075 z"
         style="color:#000000;fill:url(#linearGradient4219);fill-opacity:1;fill-rule:nonzero;stroke:none;stroke-width:1.78546524;marker:none;visibility:visible;display:inline;overflow:visible;enable-background:accumulate" />
      <path
         sodipodi:open="true"
         sodipodi:end="6.2831679"
         sodipodi:start="0"
         d="m 274.76149,129.08275 a 26.263966,26.263966 0 1 1 0,-4.6e-4"
         sodipodi:ry="26.263966"
         sodipodi:rx="26.263966"
         sodipodi:cy="129.08275"
         sodipodi:cx="248.49753"
         id="path3082"
         style="color:#000000;fill:none;stroke:none;stroke-width:1.78546524;marker:none;visibility:visible;display:inline;overflow:visible;enable-background:accumulate"
         sodipodi:type="arc" />
    </g>
    <g
       id="g3905"
       onclick="xbmc.Back()"
       transform="translate(-192.02992,-95.802056)"
       style="color:#000000;fill:url(#linearGradient3042);fill-opacity:1;fill-rule:nonzero;stroke:none;stroke-width:1.78546524;marker:none;visibility:visible;display:inline;overflow:visible;enable-background:accumulate">
      <path
         inkscape:connector-curvature="0"
         id="rect3032"
         d="m 465.10678,110.41591 -23.78125,16.65625 23.78125,16.625 0,-8.5625 13.1875,0 c 0.80902,0 1.4375,-0.44156 1.4375,-1 l 0,-14.15625 c 0,-0.55844 -0.62848,-1 -1.4375,-1 l -13.1875,0 0,-8.5625 z"
         style="color:#000000;fill:url(#linearGradient4223);fill-opacity:1;fill-rule:nonzero;stroke:none;stroke-width:1.78546524;marker:none;visibility:visible;display:inline;overflow:visible;enable-background:accumulate" />
      <path
         sodipodi:open="true"
         sodipodi:end="6.2831679"
         sodipodi:start="0"
         d="m 274.76149,129.08275 a 26.263966,26.263966 0 1 1 0,-4.6e-4"
         sodipodi:ry="26.263966"
         sodipodi:rx="26.263966"
         sodipodi:cy="129.08275"
         sodipodi:cx="248.49753"
         id="path3082-9"
         style="color:#000000;fill:none;stroke:none;stroke-width:1.78546524;marker:none;visibility:visible;display:inline;overflow:visible;enable-background:accumulate"
         sodipodi:type="arc"
         transform="translate(214.17264,8.9e-6)" />
    </g>
    <g
       id="g3062"
       transform="matrix(0.92452831,0,0,0.92452831,-27.755084,20.110451)">
      <rect
         onclick="xbmc.Stop()"
         inkscape:export-ydpi="90.010002"
         inkscape:export-xdpi="90.010002"
         inkscape:export-filename="/srv/http/sam.bailey.geek.nz/xbmc/img/Stop.png"
         ry="1.0902997"
         rx="1.5795352"
         y="213.48253"
         x="169.4787"
         height="39.296227"
         width="39.238354"
         id="rect3130-9-6"
         style="color:#000000;fill:url(#linearGradient4229);fill-opacity:1;fill-rule:nonzero;stroke:none;stroke-width:1.78546524;marker:none;visibility:visible;display:inline;overflow:visible;enable-background:accumulate" />
      <g
         style="color:#000000;fill:url(#linearGradient3089);fill-opacity:1;fill-rule:nonzero;stroke:none;stroke-width:1.78546524;marker:none;visibility:visible;display:inline;overflow:visible;enable-background:accumulate"
         transform="translate(-193.16796,-98.556635)"
         onclick="xbmc.GoPrevious()"
         id="g3926">
        <path
           inkscape:connector-curvature="0"
           inkscape:export-ydpi="90.010002"
           inkscape:export-xdpi="90.010002"
           inkscape:export-filename="/srv/http/sam.bailey.geek.nz/xbmc/img/GoPrevious.png"
           style="font-size:medium;font-style:normal;font-variant:normal;font-weight:normal;font-stretch:normal;text-indent:0;text-align:start;text-decoration:none;line-height:normal;letter-spacing:normal;word-spacing:normal;text-transform:none;direction:ltr;block-progression:tb;writing-mode:lr-tb;text-anchor:start;baseline-shift:baseline;color:#000000;fill:url(#linearGradient4233);fill-opacity:1;fill-rule:nonzero;stroke:none;stroke-width:1.78546524;marker:none;visibility:visible;display:inline;overflow:visible;enable-background:accumulate;font-family:Sans;-inkscape-font-specification:Sans"
           d="m 300.00692,308.22261 c -0.80902,0 -1.46875,0.44155 -1.46875,1 l 0,43.34374 c 0,0.55844 0.65973,1.03125 1.46875,1.03125 l 12.06249,0 c 0.80902,0 1.4375,-0.47281 1.4375,-1.03125 l 0,-15.90625 28.93751,16.71875 c 0.57752,0.33334 1.41224,-0.17696 1.40625,-0.84375 l 0,-43.25 c 9e-4,-0.47878 -0.39715,-0.9075 -0.875,-0.9375 -0.18777,-0.005 -0.37284,0.0554 -0.53125,0.15625 l -28.93751,16.6875 0,-15.96875 c 0,-0.55844 -0.62848,-1 -1.4375,-1 l -12.06249,0 z"
           id="path3128-2-7" />
        <path
           transform="translate(72.730982,200.01021)"
           sodipodi:type="arc"
           style="color:#000000;fill:none;stroke:none;stroke-width:1.78546524;marker:none;visibility:visible;display:inline;overflow:visible;enable-background:accumulate"
           id="path3082-3"
           sodipodi:cx="248.49753"
           sodipodi:cy="129.08275"
           sodipodi:rx="26.263966"
           sodipodi:ry="26.263966"
           d="m 274.76149,129.08275 a 26.263966,26.263966 0 1 1 0,-4.6e-4"
           sodipodi:start="0"
           sodipodi:end="6.2831679"
           sodipodi:open="true" />
      </g>
      <g
         style="color:#000000;fill:url(#linearGradient3091);fill-opacity:1;fill-rule:nonzero;stroke:none;stroke-width:1.78546524;marker:none;visibility:visible;display:inline;overflow:visible;enable-background:accumulate"
         transform="translate(-137.76336,-97.54649)"
         onclick="xbmc.GoNext()"
         id="g3930">
        <path
           style="font-size:medium;font-style:normal;font-variant:normal;font-weight:normal;font-stretch:normal;text-indent:0;text-align:start;text-decoration:none;line-height:normal;letter-spacing:normal;word-spacing:normal;text-transform:none;direction:ltr;block-progression:tb;writing-mode:lr-tb;text-anchor:start;baseline-shift:baseline;color:#000000;fill:url(#linearGradient4237);fill-opacity:1;fill-rule:nonzero;stroke:none;stroke-width:1.78546524;marker:none;visibility:visible;display:inline;overflow:visible;enable-background:accumulate;font-family:Sans;-inkscape-font-specification:Sans"
           d="m 395.69575,308.2226 c -0.80902,0 -1.46875,0.44156 -1.46875,1 l 0,15.9375 -28.90626,-16.65625 c -0.15842,-0.1009 -0.34349,-0.16098 -0.53125,-0.15625 -0.47785,0.03 -0.8759,0.45872 -0.875,0.9375 l 0,43.25 c -0.006,0.66679 0.82872,1.17709 1.40625,0.84375 l 28.90626,-16.71875 0,15.90625 c 0,0.55844 0.65973,1.03125 1.46875,1.03125 l 12.0625,0 c 0.80902,0 1.46875,-0.47281 1.46875,-1.03125 l 0,-43.34375 c 0,-0.55844 -0.65973,-1 -1.46875,-1 l -12.0625,0 z"
           id="path3128-2"
           inkscape:connector-curvature="0"
           inkscape:export-filename="/srv/http/sam.bailey.geek.nz/xbmc/img/GoNext.png"
           inkscape:export-xdpi="90.010002"
           inkscape:export-ydpi="90.010002" />
        <path
           transform="translate(139.40105,200.01021)"
           sodipodi:type="arc"
           style="color:#000000;fill:none;stroke:none;stroke-width:1.78546524;marker:none;visibility:visible;display:inline;overflow:visible;enable-background:accumulate"
           id="path3082-5"
           sodipodi:cx="248.49753"
           sodipodi:cy="129.08275"
           sodipodi:rx="26.263966"
           sodipodi:ry="26.263966"
           d="m 274.76149,129.08275 a 26.263966,26.263966 0 1 1 0,-4.6e-4"
           sodipodi:start="0"
           sodipodi:end="6.2831679"
           sodipodi:open="true" />
      </g>
      <g
         style="color:#000000;fill:url(#linearGradient3093);fill-opacity:1;fill-rule:nonzero;stroke:none;stroke-width:1.78546524;marker:none;visibility:visible;display:inline;overflow:visible;enable-background:accumulate"
         transform="translate(-137.19295,-97.54649)"
         onclick="xbmc.FastForward()"
         id="g3934">
        <path
           style="font-size:medium;font-style:normal;font-variant:normal;font-weight:normal;font-stretch:normal;text-indent:0;text-align:start;text-decoration:none;line-height:normal;letter-spacing:normal;word-spacing:normal;text-transform:none;direction:ltr;block-progression:tb;writing-mode:lr-tb;text-anchor:start;baseline-shift:baseline;color:#000000;fill:url(#linearGradient4239);fill-opacity:1;fill-rule:nonzero;stroke:none;stroke-width:1.78546524;marker:none;visibility:visible;display:inline;overflow:visible;enable-background:accumulate;font-family:Sans;-inkscape-font-specification:Sans"
           d="m 454.15169,308.34672 c 0.0786,0.018 0.17802,0.0518 0.25,0.0937 l 37.53125,21.4688 c 0.41606,0.23692 0.58617,0.78908 0.375,1.21875 -0.0889,0.16547 -0.24006,0.28755 -0.40625,0.375 l -10.21875,5.96875 0,0.0937 c -5.67671,3.2819 -11.35156,6.56701 -17.03125,9.84375 l -10.28125,5.9375 c -0.57753,0.33334 -1.41225,-0.17696 -1.40625,-0.84375 l 0,-13.03125 -24.0625,13.90625 c -0.57753,0.33334 -1.41225,-0.17696 -1.40625,-0.84375 l 0,-43.25 c -9e-4,-0.47878 0.39715,-0.9075 0.875,-0.9375 0.18776,-0.005 0.37283,0.0554 0.53125,0.15625 l 24.0625,13.875 0,-13.125 c -2e-5,-0.0105 -3.6e-4,-0.0208 0,-0.0312 -4.6e-4,-0.11784 0.0155,-0.21025 0.0625,-0.3125 0.0183,-0.0443 0.0378,-0.084 0.0625,-0.125 0.0365,-0.0544 0.0777,-0.10984 0.125,-0.15625 0.01,-0.0105 0.021,-0.0213 0.0312,-0.0312 0.0706,-0.0636 0.16443,-0.14407 0.25,-0.1875 0.0579,-0.0287 0.12435,-0.0466 0.1875,-0.0625 0.0783,-0.0229 0.16934,0.004 0.25,0 0.0624,0.005 0.12744,-0.0181 0.1875,0 0.0111,0.002 0.0203,-0.003 0.0312,0 z"
           id="path3128-2-7-1-3"
           inkscape:connector-curvature="0"
           sodipodi:nodetypes="cccccccccccccccccccccccccccc" />
        <path
           transform="translate(206.07112,200.01021)"
           sodipodi:type="arc"
           style="color:#000000;fill:none;stroke:none;stroke-width:1.78546524;marker:none;visibility:visible;display:inline;overflow:visible;enable-background:accumulate"
           id="path3082-38"
           sodipodi:cx="248.49753"
           sodipodi:cy="129.08275"
           sodipodi:rx="26.263966"
           sodipodi:ry="26.263966"
           d="m 274.76149,129.08275 a 26.263966,26.263966 0 1 1 0,-4.6e-4"
           sodipodi:start="0"
           sodipodi:end="6.2831679"
           sodipodi:open="true" />
      </g>
      <g
         style="color:#000000;fill:url(#linearGradient3095);fill-opacity:1;fill-rule:nonzero;stroke:none;stroke-width:1.78546524;marker:none;visibility:visible;display:inline;overflow:visible;enable-background:accumulate"
         transform="translate(-195.06097,-98.556635)"
         onclick="xbmc.Rewind()"
         id="g3922">
        <path
           style="font-size:medium;font-style:normal;font-variant:normal;font-weight:normal;font-stretch:normal;text-indent:0;text-align:start;text-decoration:none;line-height:normal;letter-spacing:normal;word-spacing:normal;text-transform:none;direction:ltr;block-progression:tb;writing-mode:lr-tb;text-anchor:start;baseline-shift:baseline;color:#000000;fill:url(#linearGradient4231);fill-opacity:1;fill-rule:nonzero;stroke:none;stroke-width:1.78546524;marker:none;visibility:visible;display:inline;overflow:visible;enable-background:accumulate;font-family:Sans;-inkscape-font-specification:Sans"
           d="m 253.55439,308.34672 c -0.0786,0.018 -0.17802,0.0518 -0.25,0.0937 l -37.53124,21.4688 c -0.41606,0.23692 -0.58617,0.78908 -0.375,1.21875 0.0889,0.16547 0.24006,0.28755 0.40625,0.375 l 10.21874,5.96875 0,0.0937 c 5.67671,3.2819 11.35156,6.56701 17.03125,9.84375 l 10.28125,5.9375 c 0.57753,0.33334 1.41225,-0.17696 1.40625,-0.84375 l 0,-13.03125 24.0625,13.90625 c 0.57753,0.33334 1.41225,-0.17696 1.40625,-0.84375 l 0,-43.25 c 9e-4,-0.47878 -0.39715,-0.9075 -0.875,-0.9375 -0.18776,-0.005 -0.37283,0.0554 -0.53125,0.15625 l -24.0625,13.875 0,-13.125 c 2e-5,-0.0105 3.6e-4,-0.0208 0,-0.0312 4.6e-4,-0.11784 -0.0155,-0.21025 -0.0625,-0.3125 -0.0183,-0.0443 -0.0378,-0.084 -0.0625,-0.125 -0.0365,-0.0544 -0.0777,-0.10984 -0.125,-0.15625 -0.01,-0.0105 -0.021,-0.0213 -0.0312,-0.0312 -0.0706,-0.0636 -0.16443,-0.14407 -0.25,-0.1875 -0.0579,-0.0287 -0.12435,-0.0466 -0.1875,-0.0625 -0.0783,-0.0229 -0.16934,0.004 -0.25,0 -0.0624,0.005 -0.12744,-0.0181 -0.1875,0 -0.0111,0.002 -0.0203,-0.003 -0.0312,0 z"
           id="path3128-2-7-1"
           inkscape:connector-curvature="0"
           sodipodi:nodetypes="cccccccccccccccccccccccccccc" />
        <path
           transform="translate(8.0812203,201.02037)"
           sodipodi:type="arc"
           style="color:#000000;fill:none;stroke:none;stroke-width:1.78546524;marker:none;visibility:visible;display:inline;overflow:visible;enable-background:accumulate"
           id="path3082-1"
           sodipodi:cx="248.49753"
           sodipodi:cy="129.08275"
           sodipodi:rx="26.263966"
           sodipodi:ry="26.263966"
           d="m 274.76149,129.08275 a 26.263966,26.263966 0 1 1 0,-4.6e-4"
           sodipodi:start="0"
           sodipodi:end="6.2831679"
           sodipodi:open="true" />
      </g>
    </g>
    <path
       sodipodi:type="star"
       style="color:#000000;fill:none;stroke:none;stroke-width:1.78546524;marker:none;visibility:visible;display:inline;overflow:visible;enable-background:accumulate"
       id="path4243"
       sodipodi:sides="3"
       sodipodi:cx="500.02551"
       sodipodi:cy="462.44684"
       sodipodi:r1="743.71515"
       sodipodi:r2="371.85757"
       sodipodi:arg1="-2.4042344"
       sodipodi:arg2="-1.3570369"
       inkscape:flatsided="true"
       inkscape:rounded="0"
       inkscape:randomized="0"
       d="M -50.507602,-37.578674 1208.3269,235.68393 342.25727,1189.2353 z"
       transform="translate(0.30543413,2.9152058)"
       inkscape:transform-center-x="-78.884113"
       inkscape:transform-center-y="113.38146" />
  </g>
</svg>
